<svg xmlns="http://www.w3.org/2000/svg" xmlns:xlink="http://www.w3.org/1999/xlink" width="565" height="400" viewBox="0 0 565 400">
  <defs>
    <style>
      .cls-1 {
        fill: #fff;
      }

      .cls-2 {
        clip-path: url(#clip-path);
      }

      .cls-3 {
        fill: #e9e9f7;
      }

      .cls-4 {
        fill: #dfe1ef;
      }

      .cls-5 {
        fill: url(#linear-gradient);
      }

      .cls-6 {
        fill: #7a7cd1;
      }

      .cls-7 {
        fill: #5457c4;
      }

      .cls-8 {
        fill: #9799db;
      }

      .cls-9 {
        fill: #4a4dc1;
      }

      .cls-10 {
        fill: #15163c;
      }

      .cls-11 {
        fill: #4144bc;
      }

      .cls-12 {
        fill: #acade2;
      }

      .cls-13 {
        fill: #34495e;
      }

      .cls-14 {
        fill: #2e0029;
      }

      .cls-15 {
        fill: #a2a4df;
      }

      .cls-16 {
        fill: #26286d;
      }
    </style>
    <clipPath id="clip-path">
      <rect id="mvp-71233-unsplash" class="cls-1" width="565" height="400" rx="3" transform="translate(385 5487)"/>
    </clipPath>
    <linearGradient id="linear-gradient" x1="0.5" x2="0.5" y2="1" gradientUnits="objectBoundingBox">
      <stop offset="0" stop-color="#dcdfed"/>
      <stop offset="1" stop-color="#e9e9f7"/>
    </linearGradient>
  </defs>
  <g id="Mask_Group_4" data-name="Mask Group 4" class="cls-2" transform="translate(-385 -5487)">
    <g id="Group_1935" data-name="Group 1935" transform="translate(499.605 5503.922)">
      <rect id="color_background" data-name="color background" class="cls-3" width="757.562" height="444.722" transform="translate(-194 -41)"/>
      <path id="Path_2062" data-name="Path 2062" class="cls-4" d="M212.012,161.921a22.1,22.1,0,1,0-23.141,22.25l-.373,18.2h3.119l-.373-18.213A22.2,22.2,0,0,0,212.012,161.921Z" transform="translate(-69.297 0.729)"/>
      <path id="Path_2063" data-name="Path 2063" class="cls-5" d="M556.422,233.093c-.51,0-1.018.017-1.524.04l-.246-12.09c6.554-1.589,10.932-13.052,9.969-26.964-1.038-15-6.12-27.161-11.351-27.161s-10.4,12.16-11.542,27.161c-1.1,14.383,3.534,26.149,10.453,27.092l-.251,12.251a31.488,31.488,0,0,0-18.816,10.025c-.047-14.181-12.007-25.664-26.756-25.664a27.379,27.379,0,0,0-14.876,4.345A70.238,70.238,0,0,0,413.3,177.1a32.374,32.374,0,0,0-63.39.966,70.318,70.318,0,0,0-82.822,44.063,27.38,27.38,0,0,0-14.876-4.345,26.919,26.919,0,0,0-23.478,13.394,70.3,70.3,0,0,0-134.65-9.049A27.38,27.38,0,0,0,79.2,217.783c-.1,0-.189.013-.285.014V203c5.711-.761,10.253-5.684,11.011-11.9a20.21,20.21,0,0,0,4.413-5l.014-.02h0a20.325,20.325,0,0,0,.424-20.715h0c-.172-.3-.353-.6-.539-.9l0-.008c-.317-.5-.656-.981-1.014-1.447v0a20.181,20.181,0,0,0-6.579-5.551l-.012-.005c-.29-.154-.587-.3-.886-.44l-.005,0h0a19.754,19.754,0,0,0-6.41-1.748h-.007c-.639-.061-1.288-.095-1.945-.095a19.849,19.849,0,0,0-7.88,1.624A20.257,20.257,0,0,0,57.972,170.33h0l0,.017c-.094.364-.173.734-.246,1.107l0,.009h0a20.591,20.591,0,0,0-.372,3.654c0,.083-.005.165-.005.249,0,.3.008.6.022.9q.02.4.053.8l0,.043h0a20.119,20.119,0,0,0,1.581,6.316h0l.014.029q.2.466.427.92l.021.043a20.248,20.248,0,0,0,5.359,6.691c.77,6.315,5.437,11.3,11.269,11.945V217.97c-13.282,1.482-23.6,12.308-23.646,25.477A31.483,31.483,0,0,0,0,252.578H585.561A31.66,31.66,0,0,0,556.422,233.093Zm-477.5-37.6c.471-.035.938-.085,1.4-.154h0a19.671,19.671,0,0,0,2.12-.433h.005a19.842,19.842,0,0,0,5.72-2.528,11.586,11.586,0,0,1-9.248,8.971Zm-2.825,5.9a11.556,11.556,0,0,1-9.5-9.014l.141.091.007,0q.765.484,1.573.9.845.433,1.735.787h0l.008,0a19.835,19.835,0,0,0,6.042,1.353Z" transform="translate(-123.969 -19.312)"/>
      <g id="Group_1935-2" data-name="Group 1935" transform="translate(123.235 49.269)">
        <path id="cloud" class="cls-1" d="M235.85,81.244h1.122a6.378,6.378,0,0,1-.261-1.844,6.942,6.942,0,0,1,13.35-2.653A5.452,5.452,0,0,1,259,80.894a2.54,2.54,0,0,1-.016.35h1.772a3.591,3.591,0,0,1,0,7.18h-24.9a3.591,3.591,0,0,1,0-7.18Z" transform="translate(-232.351 -43.367)"/>
        <path id="cloud-2" data-name="cloud" class="cls-1" d="M353.907,49.991h-1.323a7.513,7.513,0,0,0,.309-2.172,8.176,8.176,0,0,0-15.722-3.125,6.42,6.42,0,0,0-10.524,4.883,3.032,3.032,0,0,0,.018.413h-2.087a4.229,4.229,0,0,0,0,8.455h29.329a4.229,4.229,0,0,0,0-8.455Z" transform="translate(-242.289 -39.666)"/>
      </g>
      <g id="sun" transform="translate(-39.089 37.215)">
        <g id="Group_1936" data-name="Group 1936" transform="translate(0 6.05)">
          <path id="Path_2064" data-name="Path 2064" class="cls-1" d="M51.187,62.827a1.332,1.332,0,0,1-1.308-1.089,29.794,29.794,0,0,1-.489-5.384A29.359,29.359,0,0,1,60.625,33.185a1.331,1.331,0,0,1,1.649,2.088,26.715,26.715,0,0,0-10.222,21.08,27.045,27.045,0,0,0,.446,4.9,1.332,1.332,0,0,1-1.067,1.55A1.349,1.349,0,0,1,51.187,62.827Z" transform="translate(-49.39 -32.898)"/>
        </g>
        <g id="Group_1937" data-name="Group 1937" transform="translate(4.798 27.277)">
          <path id="Path_2065" data-name="Path 2065" class="cls-1" d="M79.5,88.558A29.492,29.492,0,0,1,55.026,75.529a1.33,1.33,0,1,1,2.206-1.488,26.846,26.846,0,0,0,49.117-14.989c0-.286,0-.571-.012-.855a1.331,1.331,0,0,1,2.66-.085q.015.47.014.94A29.539,29.539,0,0,1,79.5,88.558Z" transform="translate(-54.798 -56.824)"/>
        </g>
        <g id="Group_1938" data-name="Group 1938" transform="translate(17.146)">
          <path id="Path_2066" data-name="Path 2066" class="cls-1" d="M104.368,41.06a1.329,1.329,0,0,1-1.1-.581,26.872,26.872,0,0,0-32.7-9.6,1.331,1.331,0,1,1-1.043-2.449A29.535,29.535,0,0,1,105.467,38.98a1.331,1.331,0,0,1-1.1,2.08Z" transform="translate(-68.715 -26.079)"/>
        </g>
        <path id="Path_2067" data-name="Path 2067" class="cls-6" d="M99.894,56.823A19.761,19.761,0,1,1,80.134,37.062,19.762,19.762,0,0,1,99.894,56.823Z" transform="translate(-50.629 -27.318)"/>
        <path id="Path_2068" data-name="Path 2068" class="cls-7" d="M94.911,57.549A14.052,14.052,0,1,1,80.86,43.5,14.051,14.051,0,0,1,94.911,57.549Z" transform="translate(-51.355 -28.044)"/>
      </g>
      <path id="cloud-3" data-name="cloud" class="cls-1" d="M189.4,57.951h-2.233a12.631,12.631,0,0,0,.522-3.665,13.8,13.8,0,0,0-26.534-5.274A10.836,10.836,0,0,0,143.4,57.254a4.875,4.875,0,0,0,.032.7h-3.522a7.137,7.137,0,0,0,0,14.27h49.5a7.137,7.137,0,0,0,0-14.27Z" transform="translate(-97.904 9.506)"/>
      <g id="Group_1941" data-name="Group 1941" transform="translate(-14.372 283.226)">
        <g id="Group_1939" data-name="Group 1939">
          <g id="shadow" transform="translate(0 75.498)">
            <path id="Path_2069" data-name="Path 2069" class="cls-8" d="M212.493,401.708c0,1.339,18.927,2.426,42.274,2.426s42.273-1.087,42.273-2.426-18.927-2.426-42.273-2.426S212.493,400.369,212.493,401.708Z" transform="translate(-57.953 -399.282)"/>
            <path id="Path_2070" data-name="Path 2070" class="cls-8" d="M38.305,401.708c0,1.339,18.926,2.426,42.273,2.426s42.274-1.087,42.274-2.426-18.927-2.426-42.274-2.426S38.305,400.369,38.305,401.708Z" transform="translate(-38.305 -399.282)"/>
          </g>
          <path id="Path_2071" data-name="Path 2071" class="cls-9" d="M167.91,320.231h8.024a3.023,3.023,0,0,0,0-6.046H167.91a3.023,3.023,0,0,0,0,6.046Z" transform="translate(-52.583 -314.185)"/>
        </g>
        <g id="Group_1940" data-name="Group 1940" transform="translate(115.031 2.426)">
          <path id="Path_2072" data-name="Path 2072" class="cls-10" d="M167.982,318.688l.6,3.444,4.137,23.986a1.52,1.52,0,0,0,1.49,1.254,1.714,1.714,0,0,0,.264-.02,1.506,1.506,0,0,0,1.227-1.746l-4.048-23.473-.685-3.957a1.512,1.512,0,0,0-2.981.513Z" transform="translate(-167.961 -316.92)"/>
        </g>
      </g>
      <g id="Group_1946" data-name="Group 1946" transform="translate(-23.025 255.861)">
        <g id="Group_1942" data-name="Group 1942">
          <path id="Path_2073" data-name="Path 2073" class="cls-10" d="M28.551,336.645c0-.715.724-1.412.752-2.121s-.638-1.467-.581-2.173.834-1.349.919-2.052-.518-1.514-.4-2.214.94-1.276,1.082-1.97-.393-1.549-.224-2.238,1.041-1.2,1.239-1.877-.267-1.575-.042-2.248,1.134-1.106,1.387-1.77-.138-1.592.141-2.246,1.22-1.011,1.525-1.652-.01-1.6.322-2.226,1.3-.909,1.654-1.524.119-1.593.5-2.192,1.366-.8,1.771-1.387.247-1.577.674-2.144,1.426-.691,1.876-1.241.373-1.553.844-2.084,1.476-.573,1.97-1.086.494-1.519,1.007-2.011,1.517-.453,2.049-.926.613-1.473,1.164-1.923,1.548-.332,2.117-.76.729-1.419,1.314-1.825,1.569-.206,2.171-.587.84-1.356,1.456-1.713,1.581-.079,2.211-.411.947-1.285,1.589-1.591,1.582.049,2.237-.232,1.047-1.2,1.712-1.458,1.573.177,2.249-.049,1.14-1.114,1.825-1.313,1.553.3,2.245.132,1.227-1.018,1.925-1.16,1.522.428,2.227.313,1.305-.915,2.014-1,1.482.55,2.193.492,1.375-.806,2.089-.835,1.434.667,2.149.667,1.441-.7,2.148-.667,1.382.779,2.088.835,1.491-.578,2.195-.492,1.314.887,2.014,1,1.532-.455,2.228-.313,1.236.99,1.925,1.16,1.564-.329,2.246-.131,1.152,1.088,1.825,1.313,1.585-.2,2.248.05,1.06,1.178,1.714,1.458,1.594-.074,2.237.232.961,1.26,1.589,1.591,1.6.056,2.211.412.857,1.333,1.457,1.714,1.585.183,2.17.587.747,1.4,1.315,1.825,1.566.31,2.116.759.633,1.453,1.165,1.924,1.537.433,2.049.926.514,1.5,1.007,2.011,1.5.554,1.969,1.085.393,1.535.844,2.085,1.447.673,1.875,1.24.27,1.56.674,2.145,1.389.786,1.771,1.388.143,1.575.5,2.191,1.321.893,1.653,1.523.015,1.583.322,2.225,1.245,1,1.524,1.653-.112,1.578.142,2.245,1.16,1.094,1.386,1.77-.24,1.564-.042,2.248,1.067,1.185,1.239,1.877-.366,1.539-.224,2.238.968,1.267,1.082,1.971-.49,1.5-.4,2.213.862,1.339.92,2.051-.61,1.459-.582,2.173.752,1.406.752,2.121-.724,1.412-.752,2.121.638,1.467.582,2.173-.835,1.349-.92,2.052.518,1.513.4,2.213-.94,1.278-1.082,1.972.394,1.549.224,2.238-1.041,1.2-1.238,1.877.266,1.575.041,2.248-1.134,1.106-1.387,1.77.138,1.592-.141,2.245-1.22,1.011-1.525,1.653.01,1.6-.322,2.225-1.3.91-1.654,1.525-.12,1.592-.5,2.192-1.365.8-1.77,1.387-.248,1.578-.675,2.145-1.426.69-1.876,1.24-.372,1.553-.844,2.084-1.476.574-1.97,1.087-.493,1.517-1.007,2.01-1.517.453-2.049.927-.614,1.473-1.164,1.923-1.548.331-2.117.76-.729,1.42-1.314,1.825-1.569.2-2.171.587-.839,1.356-1.456,1.712-1.58.08-2.211.413-.946,1.284-1.589,1.59-1.582-.049-2.236.232-1.048,1.2-1.713,1.457-1.573-.176-2.248.051-1.141,1.114-1.826,1.313-1.552-.3-2.245-.133-1.226,1.018-1.925,1.161-1.522-.429-2.227-.315-1.305.916-2.014,1-1.482-.55-2.193-.492-1.374.806-2.089.835-1.434-.667-2.148-.667-1.441.7-2.149.667-1.382-.779-2.088-.835-1.491.578-2.195.492-1.314-.888-2.014-1-1.532.456-2.228.314-1.237-.991-1.925-1.161-1.564.331-2.246.133-1.152-1.088-1.825-1.313-1.585.2-2.249-.051-1.059-1.178-1.712-1.457-1.6.074-2.238-.232-.961-1.26-1.589-1.591-1.6-.056-2.211-.413-.857-1.334-1.457-1.713-1.586-.183-2.171-.587-.746-1.4-1.314-1.826-1.567-.31-2.117-.76-.632-1.451-1.164-1.923-1.537-.434-2.049-.926-.514-1.5-1.007-2.01-1.5-.555-1.969-1.087-.393-1.533-.844-2.084-1.448-.672-1.876-1.241-.269-1.56-.673-2.145-1.39-.785-1.771-1.387-.143-1.575-.5-2.192-1.322-.894-1.654-1.524-.016-1.582-.321-2.224-1.246-1-1.526-1.653.113-1.578-.14-2.245-1.16-1.094-1.387-1.77.24-1.564.041-2.248-1.066-1.185-1.237-1.878.366-1.538.223-2.237-.967-1.267-1.082-1.971.49-1.5.4-2.213-.862-1.339-.919-2.051.61-1.459.581-2.173S28.551,337.36,28.551,336.645Zm6.755,0c0,.633-.7,1.278-.672,1.9s.772,1.219.822,1.845-.592,1.33-.517,1.954.867,1.153.967,1.774-.484,1.372-.358,1.987.957,1.078,1.108,1.688-.371,1.405-.2,2.009,1.042,1,1.241,1.593-.256,1.431-.032,2.019,1.119.909,1.366,1.487-.139,1.447.131,2.015,1.189.815,1.482,1.372-.021,1.453.295,2,1.25.718,1.587,1.249.095,1.45.453,1.967,1.3.615,1.682,1.118.211,1.436.61,1.924,1.348.507,1.766.979.324,1.417.76,1.871,1.385.4,1.839.835.437,1.385.908,1.8,1.412.287,1.9.686.545,1.345,1.049,1.725,1.429.173,1.948.531.65,1.3,1.183,1.637,1.439.057,1.985.373.753,1.241,1.311,1.536,1.438-.06,2.008.212.85,1.176,1.43,1.426,1.428-.177,2.018.049.942,1.1,1.541,1.3,1.41-.289,2.016-.114,1.029,1.024,1.642,1.175,1.381-.4,2-.277,1.108.937,1.732,1.037,1.344-.514,1.972-.437,1.179.844,1.81.893,1.3-.619,1.93-.593,1.244.746,1.877.746,1.249-.722,1.876-.746,1.3.644,1.931.593,1.187-.819,1.811-.894,1.351.539,1.971.438,1.116-.912,1.732-1.037,1.39.427,2,.276,1.038-1,1.642-1.175,1.42.313,2.016.114.954-1.082,1.542-1.305,1.44.2,2.018-.049.862-1.155,1.43-1.426,1.451.08,2.009-.213.766-1.22,1.311-1.535,1.452-.037,1.984-.374.666-1.279,1.184-1.637,1.445-.153,1.948-.532.561-1.326,1.049-1.726,1.428-.267,1.9-.686.453-1.366.908-1.8,1.4-.38,1.839-.835.342-1.4.76-1.87,1.367-.492,1.766-.979.231-1.42.61-1.924,1.324-.6,1.682-1.118.115-1.435.453-1.966,1.27-.7,1.587-1.25,0-1.439.293-2,1.21-.8,1.482-1.372-.117-1.434.131-2.014,1.142-.9,1.366-1.487S125.9,352,126.1,351.4s1.066-.986,1.241-1.593-.347-1.4-.2-2.009.981-1.068,1.107-1.687-.46-1.363-.358-1.986.892-1.145.967-1.774-.568-1.322-.517-1.952.8-1.213.822-1.845-.672-1.271-.672-1.9.7-1.279.672-1.9-.772-1.22-.822-1.845.593-1.329.517-1.953-.867-1.153-.967-1.773.484-1.372.358-1.987-.957-1.078-1.107-1.688.371-1.405.2-2.01-1.042-1-1.24-1.593.256-1.431.032-2.019-1.119-.909-1.366-1.487.138-1.447-.132-2.015-1.188-.815-1.482-1.372.022-1.453-.294-2-1.25-.718-1.587-1.25-.095-1.45-.453-1.967-1.3-.614-1.682-1.116-.211-1.438-.609-1.925-1.349-.508-1.766-.98-.325-1.416-.76-1.87-1.385-.4-1.839-.835-.437-1.386-.908-1.8-1.412-.287-1.9-.686-.545-1.346-1.049-1.725-1.429-.173-1.947-.532-.651-1.3-1.184-1.636-1.439-.058-1.984-.374-.753-1.24-1.311-1.534-1.437.058-2.008-.214-.85-1.177-1.43-1.425-1.428.175-2.018-.05-.942-1.1-1.541-1.3-1.41.289-2.017.113-1.028-1.024-1.641-1.176-1.381.4-2,.278-1.107-.937-1.731-1.037-1.343.514-1.971.438-1.18-.845-1.81-.9-1.3.62-1.931.594-1.244-.747-1.876-.747-1.25.723-1.877.747-1.3-.644-1.93-.594-1.188.82-1.811.9-1.352-.539-1.972-.438-1.116.911-1.732,1.037-1.39-.428-2-.278-1.038,1-1.642,1.176-1.42-.313-2.017-.114-.953,1.081-1.54,1.3-1.441-.2-2.019.051-.863,1.155-1.431,1.425-1.451-.08-2.008.214-.767,1.22-1.311,1.535-1.452.036-1.985.374-.666,1.278-1.184,1.637-1.444.153-1.947.531-.562,1.326-1.05,1.726-1.428.269-1.9.686-.452,1.366-.907,1.8-1.4.381-1.838.836-.343,1.4-.761,1.87-1.367.492-1.766.98-.23,1.42-.609,1.925-1.324.6-1.682,1.116-.115,1.436-.453,1.968-1.27.7-1.587,1.248,0,1.44-.293,2-1.211.8-1.482,1.373.116,1.435-.132,2.015-1.141.9-1.365,1.487.232,1.42.032,2.018-1.065.987-1.241,1.593.348,1.4.2,2.01-.981,1.069-1.107,1.688.46,1.363.358,1.986-.892,1.145-.967,1.773.568,1.321.517,1.951-.8,1.213-.822,1.845S35.306,336.012,35.306,336.645Z" transform="translate(-28.551 -283.341)"/>
        </g>
        <g id="Group_1943" data-name="Group 1943" transform="translate(6.065 6.022)">
          <path id="Path_2074" data-name="Path 2074" class="cls-11" d="M35.387,337.411A47.282,47.282,0,1,1,82.67,384.693,47.335,47.335,0,0,1,35.387,337.411Zm4.031,0A43.251,43.251,0,1,0,82.67,294.16,43.3,43.3,0,0,0,39.418,337.411Z" transform="translate(-35.387 -290.129)"/>
        </g>
        <g id="Group_1944" data-name="Group 1944" transform="translate(40.847 16.435)">
          <path id="Path_2075" data-name="Path 2075" class="cls-1" d="M122.434,333.633a1.033,1.033,0,0,0,.171-.016,1.007,1.007,0,0,0,.823-1.162A36.906,36.906,0,0,0,75.276,303.8a1.007,1.007,0,1,0,.646,1.908A34.893,34.893,0,0,1,121.441,332.8,1.009,1.009,0,0,0,122.434,333.633Z" transform="translate(-74.591 -301.865)"/>
        </g>
        <g id="Group_1945" data-name="Group 1945" transform="translate(17.369 60.283)">
          <path id="Path_2076" data-name="Path 2076" class="cls-1" d="M84.107,381.179a37.317,37.317,0,0,0,5.675-.434,1.008,1.008,0,1,0-.308-1.992,35.34,35.34,0,0,1-5.368.411,34.66,34.66,0,0,1-33.988-27.09,1.008,1.008,0,0,0-1.965.446A36.664,36.664,0,0,0,84.107,381.179Z" transform="translate(-48.128 -351.288)"/>
        </g>
      </g>
      <g id="Group_1947" data-name="Group 1947" transform="translate(23.011 301.856)">
        <path id="Path_2077" data-name="Path 2077" class="cls-7" d="M80.44,342.493a7.311,7.311,0,1,0,7.311-7.31A7.31,7.31,0,0,0,80.44,342.493Z" transform="translate(-80.44 -335.183)"/>
        <path id="Path_2078" data-name="Path 2078" class="cls-1" d="M83.821,342.874a4.311,4.311,0,1,0,4.312-4.31A4.311,4.311,0,0,0,83.821,342.874Z" transform="translate(-80.821 -335.564)"/>
      </g>
      <g id="Group_1952" data-name="Group 1952" transform="translate(130.141 255.861)">
        <g id="Group_1948" data-name="Group 1948">
          <path id="Path_2079" data-name="Path 2079" class="cls-10" d="M201.19,336.645c0-.715.724-1.412.752-2.121s-.638-1.466-.582-2.173.835-1.349.919-2.052-.517-1.513-.4-2.214.94-1.277,1.082-1.971-.394-1.549-.224-2.238,1.04-1.2,1.238-1.877-.267-1.575-.042-2.248,1.135-1.106,1.387-1.77-.138-1.592.141-2.246,1.22-1.011,1.526-1.652-.01-1.6.321-2.226,1.3-.909,1.655-1.524.119-1.592.5-2.191,1.365-.8,1.77-1.388.248-1.577.675-2.144,1.426-.691,1.876-1.241.372-1.553.844-2.084,1.477-.573,1.97-1.086.494-1.518,1.007-2.01,1.516-.454,2.049-.926.613-1.474,1.164-1.924,1.548-.331,2.117-.76.729-1.419,1.315-1.825,1.569-.2,2.17-.586.84-1.357,1.457-1.714,1.58-.079,2.21-.411.946-1.285,1.589-1.591,1.581.049,2.236-.231,1.047-1.2,1.713-1.458,1.572.177,2.248-.049,1.141-1.114,1.826-1.313,1.553.3,2.245.132,1.226-1.018,1.925-1.16,1.522.428,2.226.313,1.306-.915,2.015-1,1.482.55,2.194.492,1.374-.806,2.088-.835,1.435.667,2.149.667,1.44-.7,2.149-.667,1.382.779,2.088.835,1.491-.578,2.194-.492,1.316.887,2.016,1,1.531-.454,2.227-.312,1.237.99,1.925,1.16,1.563-.329,2.246-.132,1.152,1.088,1.825,1.313,1.585-.2,2.249.05,1.059,1.179,1.712,1.459,1.6-.075,2.237.232.961,1.26,1.59,1.591,1.6.055,2.211.412.856,1.333,1.456,1.713,1.587.183,2.171.587.747,1.4,1.315,1.826,1.566.309,2.116.759.633,1.451,1.164,1.923,1.538.434,2.049.927.515,1.5,1.008,2.01,1.5.555,1.968,1.086.393,1.534.844,2.085,1.448.673,1.876,1.24.27,1.56.674,2.145,1.389.786,1.771,1.387.143,1.577.5,2.193,1.322.893,1.654,1.522.015,1.583.321,2.225,1.246,1,1.526,1.653-.113,1.578.14,2.245,1.16,1.094,1.386,1.77-.239,1.564-.041,2.248,1.068,1.185,1.239,1.877-.366,1.538-.224,2.238.967,1.267,1.081,1.971-.491,1.5-.4,2.213.861,1.339.919,2.051-.609,1.459-.58,2.173.751,1.406.751,2.121-.723,1.412-.751,2.121.636,1.467.58,2.173-.835,1.349-.919,2.052.517,1.513.4,2.213-.939,1.278-1.082,1.972.394,1.549.225,2.238-1.041,1.2-1.239,1.877.266,1.575.041,2.248-1.133,1.106-1.386,1.77.138,1.592-.14,2.245-1.221,1.012-1.526,1.653.009,1.6-.322,2.226-1.3.91-1.654,1.524-.119,1.592-.5,2.192-1.366.8-1.771,1.387-.248,1.577-.674,2.144-1.426.691-1.876,1.242-.373,1.552-.845,2.084-1.475.573-1.968,1.086-.5,1.518-1.008,2.01-1.517.454-2.049.927-.614,1.473-1.165,1.923-1.548.332-2.117.76-.728,1.42-1.313,1.825-1.57.206-2.17.587-.842,1.356-1.457,1.712-1.58.081-2.211.413-.947,1.284-1.589,1.59-1.581-.049-2.237.232-1.046,1.2-1.712,1.457-1.573-.176-2.249.051-1.141,1.114-1.825,1.313-1.553-.3-2.245-.133-1.226,1.018-1.925,1.161-1.522-.429-2.226-.314-1.306.916-2.016,1-1.482-.55-2.193-.492-1.374.806-2.088.835-1.434-.667-2.149-.667-1.44.7-2.149.667-1.381-.779-2.088-.835-1.491.578-2.2.492-1.314-.888-2.014-1-1.532.456-2.227.314-1.238-.991-1.926-1.161-1.563.33-2.245.133-1.152-1.088-1.826-1.313-1.585.2-2.248-.051-1.059-1.178-1.713-1.457-1.594.074-2.237-.232-.961-1.26-1.589-1.591-1.6-.056-2.211-.413-.857-1.334-1.458-1.713-1.585-.183-2.17-.588-.746-1.4-1.314-1.825-1.567-.31-2.117-.76-.633-1.451-1.164-1.923-1.537-.434-2.049-.926-.514-1.5-1.007-2.011-1.5-.554-1.969-1.086-.393-1.534-.844-2.084-1.447-.672-1.875-1.242-.27-1.559-.675-2.144-1.389-.785-1.77-1.387-.143-1.575-.5-2.191-1.321-.894-1.654-1.524-.015-1.583-.321-2.225-1.245-1-1.525-1.653.113-1.578-.141-2.244-1.16-1.095-1.386-1.771.24-1.563.042-2.248-1.067-1.184-1.239-1.878.366-1.538.224-2.237-.969-1.267-1.082-1.971.49-1.5.4-2.213-.861-1.339-.919-2.051.61-1.459.582-2.173S201.19,337.36,201.19,336.645Zm6.755,0c0,.633-.7,1.278-.672,1.9s.771,1.219.822,1.845-.593,1.33-.517,1.954.867,1.153.967,1.774-.484,1.372-.358,1.987.957,1.078,1.107,1.688-.371,1.405-.2,2.009,1.042,1,1.24,1.593-.256,1.431-.032,2.019,1.119.909,1.366,1.487-.138,1.447.131,2.014,1.189.815,1.482,1.372-.022,1.453.294,2,1.25.718,1.587,1.247.095,1.451.453,1.969,1.3.615,1.682,1.118.211,1.436.61,1.924,1.348.507,1.766.979.325,1.417.761,1.871,1.384.4,1.838.835.437,1.385.908,1.8,1.411.286,1.9.684.546,1.346,1.05,1.726,1.428.173,1.947.531.651,1.3,1.184,1.637,1.438.057,1.983.373.754,1.24,1.312,1.535,1.437-.059,2.007.212.85,1.177,1.431,1.426,1.428-.176,2.018.049.942,1.1,1.541,1.305,1.409-.289,2.016-.114,1.029,1.024,1.642,1.175,1.38-.4,2-.277,1.108.937,1.733,1.037,1.342-.514,1.97-.438,1.179.845,1.809.894,1.3-.619,1.931-.593,1.244.746,1.877.746,1.25-.722,1.877-.746,1.3.644,1.93.593,1.187-.819,1.811-.894,1.352.539,1.972.438,1.116-.912,1.732-1.037,1.39.427,2,.277,1.038-1,1.642-1.176,1.42.313,2.016.114.953-1.081,1.541-1.305,1.44.2,2.019-.049.862-1.155,1.43-1.426,1.451.08,2.009-.213.767-1.22,1.311-1.535,1.452-.037,1.984-.374.666-1.278,1.184-1.637,1.444-.153,1.948-.532.561-1.326,1.048-1.725,1.428-.269,1.9-.686.452-1.367.908-1.8,1.4-.38,1.839-.834.341-1.4.759-1.871,1.367-.492,1.766-.979.231-1.42.61-1.924,1.323-.6,1.681-1.118.115-1.435.453-1.966,1.27-.7,1.586-1.249,0-1.439.295-2,1.21-.8,1.481-1.372-.117-1.434.132-2.014,1.141-.9,1.365-1.487-.232-1.419-.031-2.019,1.064-.986,1.239-1.593-.347-1.4-.2-2.01.981-1.068,1.107-1.687-.458-1.363-.358-1.986.892-1.145.967-1.774-.568-1.322-.517-1.952.8-1.213.822-1.845-.673-1.271-.673-1.9.7-1.278.673-1.9-.771-1.22-.822-1.845.593-1.329.517-1.953-.867-1.152-.967-1.773.484-1.373.358-1.988-.957-1.078-1.108-1.688.371-1.405.2-2.01-1.041-1-1.239-1.593.256-1.431.031-2.019-1.119-.909-1.366-1.487.139-1.447-.131-2.016-1.189-.814-1.482-1.371.021-1.453-.295-2-1.25-.718-1.587-1.249-.095-1.45-.452-1.967-1.3-.615-1.683-1.118-.21-1.436-.609-1.924-1.348-.508-1.766-.98-.325-1.415-.761-1.87-1.384-.4-1.838-.835-.437-1.385-.908-1.8-1.411-.287-1.9-.686-.547-1.347-1.05-1.725-1.428-.174-1.947-.532-.652-1.3-1.183-1.637-1.438-.057-1.984-.373-.753-1.24-1.311-1.535-1.437.059-2.008-.213-.85-1.177-1.43-1.425-1.429.175-2.019-.05-.941-1.1-1.541-1.3-1.409.289-2.015.113-1.03-1.025-1.643-1.176-1.381.4-2,.278-1.108-.937-1.732-1.037-1.343.514-1.971.437-1.179-.844-1.809-.894-1.3.62-1.931.594-1.244-.747-1.877-.747-1.25.723-1.877.747-1.3-.644-1.93-.594-1.187.82-1.811.9-1.351-.539-1.971-.438-1.116.912-1.733,1.037-1.389-.428-2-.277-1.038,1-1.642,1.176-1.42-.313-2.016-.114-.954,1.081-1.542,1.3-1.44-.2-2.018.05-.863,1.155-1.43,1.425-1.451-.079-2.009.214-.767,1.22-1.312,1.535-1.451.037-1.983.374-.666,1.278-1.184,1.637-1.445.153-1.948.531-.561,1.326-1.049,1.726-1.428.269-1.9.686-.452,1.367-.907,1.8-1.4.381-1.838.836-.342,1.4-.761,1.87-1.366.492-1.766.979-.23,1.42-.61,1.924-1.324.6-1.682,1.117-.114,1.435-.452,1.967-1.271.7-1.587,1.248,0,1.44-.294,2-1.21.8-1.482,1.372.117,1.435-.131,2.015-1.142.9-1.366,1.487.232,1.42.033,2.018-1.066.987-1.241,1.593.347,1.4.2,2.01-.981,1.069-1.107,1.688.46,1.363.358,1.986-.892,1.145-.967,1.773.568,1.321.517,1.951-.8,1.213-.822,1.845S207.945,336.012,207.945,336.645Z" transform="translate(-201.19 -283.341)"/>
        </g>
        <g id="Group_1949" data-name="Group 1949" transform="translate(6.065 6.022)">
          <path id="Path_2080" data-name="Path 2080" class="cls-11" d="M208.026,337.411a47.282,47.282,0,1,1,47.282,47.282A47.335,47.335,0,0,1,208.026,337.411Zm4.031,0a43.252,43.252,0,1,0,43.251-43.251A43.3,43.3,0,0,0,212.057,337.411Z" transform="translate(-208.026 -290.129)"/>
        </g>
        <g id="Group_1950" data-name="Group 1950" transform="translate(40.848 16.435)">
          <path id="Path_2081" data-name="Path 2081" class="cls-1" d="M295.073,333.633a1.024,1.024,0,0,0,.171-.016,1,1,0,0,0,.822-1.162,36.9,36.9,0,0,0-48.15-28.656,1.007,1.007,0,0,0,.645,1.908,34.894,34.894,0,0,1,45.52,27.088A1.008,1.008,0,0,0,295.073,333.633Z" transform="translate(-247.231 -301.865)"/>
        </g>
        <g id="Group_1951" data-name="Group 1951" transform="translate(17.37 60.283)">
          <path id="Path_2082" data-name="Path 2082" class="cls-1" d="M256.745,381.179a37.323,37.323,0,0,0,5.676-.434,1.008,1.008,0,1,0-.307-1.992,35.346,35.346,0,0,1-5.369.411,34.659,34.659,0,0,1-33.986-27.09,1.008,1.008,0,1,0-1.965.446A36.665,36.665,0,0,0,256.745,381.179Z" transform="translate(-220.768 -351.289)"/>
        </g>
      </g>
      <g id="Group_1953" data-name="Group 1953" transform="translate(89.223 297.282)">
        <path id="Path_2083" data-name="Path 2083" class="cls-10" d="M155.071,347.849a18.048,18.048,0,0,1,18.261-17.821h0l76.868,4.18a8.362,8.362,0,0,1,8.329,8.376c-.027,4.223-3.031,7.226-8.239,8.242L173.226,365.9a11.325,11.325,0,0,1-2,.165C163.01,366.012,155.009,356.987,155.071,347.849Zm2.032.014c-.055,8.122,6.946,16.14,14.135,16.19a9.113,9.113,0,0,0,1.614-.131L249.9,348.849c2.454-.478,6.571-1.931,6.6-6.279a6.349,6.349,0,0,0-6.36-6.348l-76.868-4.181A16.013,16.013,0,0,0,157.1,347.863Z" transform="translate(-155.071 -330.027)"/>
      </g>
      <g id="Group_1957" data-name="Group 1957" transform="translate(27.8 209.674)">
        <g id="Group_1954" data-name="Group 1954" transform="translate(22.249 29.172)">
          <path id="Path_2084" data-name="Path 2084" class="cls-7" d="M165.828,341.408l-54.415-73.223a2.52,2.52,0,0,1,2.023-4.023h82.293a2.514,2.514,0,0,1,2.054,1.062l48.37,68.185a2.519,2.519,0,0,1-1.888,3.971l-76.249,5.038c-.055,0-.111.006-.166.006A2.515,2.515,0,0,1,165.828,341.408Zm28.6-72.206H118.446l50.606,68.1,70.384-4.652Z" transform="translate(-110.916 -264.163)"/>
        </g>
        <g id="Group_1955" data-name="Group 1955" transform="translate(77.853 10.019)">
          <path id="Path_2085" data-name="Path 2085" class="cls-7" d="M175.211,338.489a2.54,2.54,0,0,0,3.255-1.451l31.7-82.7L213.362,246a2.52,2.52,0,1,0-4.707-1.8l-3.889,10.147-31.006,80.9A2.517,2.517,0,0,0,175.211,338.489Z" transform="translate(-173.589 -242.574)"/>
          <path id="Path_2086" data-name="Path 2086" class="cls-1" d="M208.729,254.338h5.4L217.325,246a2.52,2.52,0,1,0-4.707-1.8Z" transform="translate(-177.553 -242.574)"/>
        </g>
        <g id="Group_1956" data-name="Group 1956">
          <path id="Path_2087" data-name="Path 2087" class="cls-7" d="M87.63,333.187a2.646,2.646,0,0,0,.728.1,2.516,2.516,0,0,0,2.411-1.788l23.765-78.442,5.613-18.531a2.517,2.517,0,1,0-4.817-1.462l-6.057,19.993-23.327,76.98A2.531,2.531,0,0,0,87.63,333.187Z" transform="translate(-85.838 -231.282)"/>
          <path id="Path_2088" data-name="Path 2088" class="cls-1" d="M112.253,253.061h5.26l5.613-18.531a2.517,2.517,0,1,0-4.817-1.462Z" transform="translate(-88.818 -231.282)"/>
        </g>
      </g>
      <g id="Group_1958" data-name="Group 1958" transform="translate(87.384 295.489)">
        <path id="Path_2089" data-name="Path 2089" class="cls-1" d="M154.741,349.843c.091.767-1.354,1.808-1.172,2.544s1.948,1,2.218,1.711-.88,2.077-.525,2.75,2.129.5,2.563,1.127-.358,2.226.149,2.8,2.186-.026,2.759.482.179,2.246.809,2.681,2.115-.547,2.795-.189.709,2.136,1.428,2.409,1.919-1.039,2.667-.855,1.2,1.9,1.966,1.993c.751.091,1.61-1.469,2.384-1.469s1.636,1.561,2.386,1.469c.767-.092,1.231-1.813,1.967-1.994s1.956,1.125,2.666.855.755-2.054,1.428-2.41,2.168.624,2.8.189.238-2.174.809-2.682,2.251.091,2.758-.482-.287-2.166.148-2.8,2.206-.449,2.564-1.127-.8-2.033-.526-2.751,2.034-.962,2.218-1.71-1.266-1.777-1.172-2.544c.089-.751,1.742-1.417,1.742-2.191s-1.654-1.443-1.743-2.191c-.093-.767,1.353-1.809,1.172-2.544s-1.947-1-2.218-1.71.879-2.079.526-2.751-2.131-.5-2.565-1.127.358-2.226-.149-2.8-2.186.026-2.757-.482-.18-2.246-.81-2.68-2.116.546-2.795.189-.709-2.136-1.428-2.409-1.918,1.039-2.666.854-1.2-1.9-1.967-1.992c-.749-.091-1.608,1.469-2.384,1.469s-1.635-1.561-2.385-1.469c-.767.091-1.231,1.814-1.966,1.994s-1.958-1.125-2.667-.855-.755,2.054-1.429,2.409-2.167-.623-2.795-.189-.238,2.175-.808,2.681-2.252-.09-2.76.482.288,2.168-.147,2.8-2.206.447-2.564,1.126.8,2.032.526,2.751-2.033.961-2.217,1.708,1.263,1.778,1.172,2.544c-.091.75-1.743,1.417-1.743,2.191S154.651,349.093,154.741,349.843Zm4.772-2.192a13.269,13.269,0,1,1,13.268,13.269A13.269,13.269,0,0,1,159.514,347.651Z" transform="translate(-152.998 -328.007)"/>
        <path id="Path_2090" data-name="Path 2090" class="cls-7" d="M167.058,349.219a7.31,7.31,0,1,0,7.31-7.31A7.311,7.311,0,0,0,167.058,349.219Z" transform="translate(-154.584 -329.575)"/>
        <path id="Path_2091" data-name="Path 2091" class="cls-1" d="M170.438,349.6a4.311,4.311,0,1,0,4.311-4.31A4.312,4.312,0,0,0,170.438,349.6Z" transform="translate(-154.965 -329.956)"/>
        <path id="Path_2092" data-name="Path 2092" class="cls-10" d="M172.526,349.836a2.458,2.458,0,1,0,2.458-2.458A2.459,2.459,0,0,0,172.526,349.836Z" transform="translate(-155.201 -330.192)"/>
      </g>
      <g id="Group_1959" data-name="Group 1959" transform="translate(120.899 213.319)">
        <path id="Path_2093" data-name="Path 2093" class="cls-10" d="M195.811,245.466l29.167,1.871c5.873.816,6.8-4.127,6.8-6.91a5.037,5.037,0,0,0-5.038-5.038H195.811a5.038,5.038,0,0,0,0,10.076Z" transform="translate(-190.773 -235.39)"/>
      </g>
      <g id="Group_1964" data-name="Group 1964" transform="translate(13.528 204.058)">
        <g id="Group_1960" data-name="Group 1960" transform="translate(17.626 5.616)">
          <path id="Path_2094" data-name="Path 2094" class="cls-1" d="M92.139,236.319h26.025a2.519,2.519,0,0,0,0-5.038H92.139a2.519,2.519,0,1,0,0,5.038Z" transform="translate(-89.619 -231.281)"/>
        </g>
        <g id="Group_1961" data-name="Group 1961" transform="translate(6.291 4.979)">
          <path id="Path_2095" data-name="Path 2095" class="cls-10" d="M88.957,230.563h15.092v6.045H88.957a6.069,6.069,0,1,0,0,12.138H94.88a3.023,3.023,0,0,1,0,6.046H88.8a12.115,12.115,0,0,1,.158-24.229Z" transform="translate(-76.842 -230.563)"/>
        </g>
        <g id="Group_1963" data-name="Group 1963">
          <g id="Group_1962" data-name="Group 1962">
            <path id="Path_2096" data-name="Path 2096" class="cls-1" d="M71.622,247.01c.063,0,.126,0,.188-.011a1.733,1.733,0,0,0,1.537-1.909c-1.136-10.505,5.44-14.831,8.357-16.215l2.5,4.788a1.733,1.733,0,0,0,3.071-1.6l-3.229-6.178A1.733,1.733,0,0,0,82,225.029c-.139.043-13.821,4.493-12.1,20.434A1.734,1.734,0,0,0,71.622,247.01Z" transform="translate(-69.752 -224.951)"/>
          </g>
          <path id="Path_2097" data-name="Path 2097" class="cls-1" d="M84.383,232.657a3.1,3.1,0,1,0,3.811-2.18A3.1,3.1,0,0,0,84.383,232.657Z" transform="translate(-71.39 -225.562)"/>
        </g>
      </g>
      <g id="Group_1967" data-name="Group 1967" transform="translate(101.963 313.954)">
        <g id="Group_1965" data-name="Group 1965" transform="translate(3.582)">
          <path id="Path_2098" data-name="Path 2098" class="cls-10" d="M173.489,350.59l4.09,23.693.644,3.735a1.513,1.513,0,0,0,1.49,1.255,1.476,1.476,0,0,0,.256-.022,1.508,1.508,0,0,0,1.233-1.746l-.555-3.222-4.178-24.207a1.513,1.513,0,0,0-2.981.515Z" transform="translate(-173.468 -348.819)"/>
        </g>
        <g id="Group_1966" data-name="Group 1966" transform="translate(0 26.835)">
          <path id="Path_2099" data-name="Path 2099" class="cls-9" d="M172.453,385.112h8.024a3.023,3.023,0,1,0,0-6.046h-8.024a3.023,3.023,0,0,0,0,6.046Z" transform="translate(-169.43 -379.066)"/>
        </g>
      </g>
      <g id="Group_1968" data-name="Group 1968" transform="translate(177.13 302.538)">
        <path id="Path_2100" data-name="Path 2100" class="cls-7" d="M255.1,343.164a6.321,6.321,0,1,0,6.321-6.322A6.32,6.32,0,0,0,255.1,343.164Z" transform="translate(-254.26 -336.053)"/>
        <path id="Path_2101" data-name="Path 2101" class="cls-1" d="M254.786,343.856c.032.279-.492.656-.425.921s.705.363.8.62-.318.751-.191,1,.772.182.93.408-.13.8.053,1.013.791-.011,1,.174.066.814.294.969.766-.2,1.011-.067.256.774.516.872.695-.377.965-.311.434.69.712.721.584-.531.864-.531.592.565.862.531.446-.657.712-.721.708.407.966.311.272-.743.517-.874.784.226,1.01.068.087-.785.294-.969.814.035,1-.174-.1-.787.054-1.013.8-.164.928-.408-.288-.735-.191-1,.737-.349.8-.62-.457-.642-.424-.921.632-.513.632-.793-.6-.523-.632-.795.491-.653.424-.919-.705-.364-.8-.62.318-.752.191-.995-.772-.181-.929-.407.13-.806-.053-1.014-.792.011-1-.174-.066-.813-.295-.97-.766.2-1.011.066-.256-.774-.516-.871-.7.377-.965.31-.434-.689-.712-.72-.582.532-.862.532-.592-.566-.864-.532-.445.657-.712.72-.709-.406-.966-.31-.271.746-.516.871-.785-.224-1.012-.066-.086.788-.293.971-.815-.031-1,.173.1.786-.054,1.014-.8.163-.929.407.288.735.191,1-.736.348-.8.619.457.643.425.921-.633.514-.633.793S254.752,343.586,254.786,343.856Zm1.727-.793a4.8,4.8,0,1,1,4.8,4.8A4.8,4.8,0,0,1,256.512,343.063Z" transform="translate(-254.153 -335.952)"/>
        <path id="Path_2102" data-name="Path 2102" class="cls-1" d="M259.323,343.639a2.576,2.576,0,1,0,2.576-2.576A2.576,2.576,0,0,0,259.323,343.639Z" transform="translate(-254.736 -336.529)"/>
      </g>
      <g id="Group_1969" data-name="Group 1969" transform="translate(299.064 142.466)">
        <path id="Path_2103" data-name="Path 2103" class="cls-10" d="M364.116,253.267A26.616,26.616,0,0,1,337.5,226.651V182.145a26.616,26.616,0,1,1,53.232,0v44.506A26.616,26.616,0,0,1,364.116,253.267Z" transform="translate(-337.5 -155.529)"/>
      </g>
      <path id="Path_2104" data-name="Path 2104" class="cls-8" d="M305.33,410.827c0,1.34,18.926,2.426,42.273,2.426s42.274-1.086,42.274-2.426S370.95,408.4,347.6,408.4,305.33,409.488,305.33,410.827Z" transform="translate(-34.807 -41.586)"/>
      <g id="hand" transform="translate(238.079 123.301)">
        <path id="Path_2105" data-name="Path 2105" class="cls-7" d="M281.442,164.259c-2.382,20.812,1.747,26.231,3.159,27.433a3.611,3.611,0,0,0,3.337.662c23.592-8.617,36.666-17.147,36.972-17.347a5.977,5.977,0,0,1,6.62,9.954c-.571.381-14.288,9.42-39.471,18.614a15.747,15.747,0,0,1-5.287.882,15.022,15.022,0,0,1-9.578-3.378c-7.341-5.905-9.862-18.32-7.669-37.86a16.98,16.98,0,0,0,7.38,1.608A18.159,18.159,0,0,0,281.442,164.259Z" transform="translate(-268.762 -137.232)"/>
        <path id="Path_2106" data-name="Path 2106" class="cls-12" d="M277.146,151.131a5.976,5.976,0,0,1,5.042,6.785c-.259,1.751-.47,3.4-.649,4.972a18.157,18.157,0,0,1-4.536.57,16.979,16.979,0,0,1-7.38-1.609q.31-2.747.738-5.677A5.978,5.978,0,0,1,277.146,151.131Z" transform="translate(-268.859 -135.861)"/>
        <rect id="Rectangle_385" data-name="Rectangle 385" class="cls-1" width="16.309" height="30.82" rx="3" transform="translate(10.84)"/>
        <path id="Path_2107" data-name="Path 2107" class="cls-12" d="M271.656,154.1c0,2.654,3.7,4.8,8.272,4.8s8.274-2.15,8.274-4.8-3.7-4.8-8.274-4.8S271.656,151.452,271.656,154.1Z" transform="translate(-269.088 -135.662)"/>
        <ellipse id="Ellipse_330" data-name="Ellipse 330" class="cls-13" cx="1.068" cy="1.068" rx="1.068" ry="1.068" transform="translate(22.178 2.793)"/>
      </g>
      <g id="legs" transform="translate(283.126 240.63)">
        <path id="Path_2108" data-name="Path 2108" class="cls-10" d="M335.746,267.37h38.729V390.295h-3.888s-13.5-41.944-15.369-108.151h-13.4V390.3h-3.888s-13.507-41.942-15.364-108.154c-.094-3.033-.157-6.126-.187-9.26-.021-1.938-.041-3.768-.061-5.514Z" transform="translate(-319.85 -266.308)"/>
        <rect id="Rectangle_386" data-name="Rectangle 386" class="cls-9" width="7.775" height="4.076" transform="translate(48.017 119.911)"/>
        <rect id="Rectangle_387" data-name="Rectangle 387" class="cls-9" width="7.776" height="4.076" transform="translate(15.357 119.911)"/>
        <path id="Path_2109" data-name="Path 2109" class="cls-9" d="M356.348,410.548a4.85,4.85,0,0,1,4.84-4.622H379.48v4.622Z" transform="translate(-323.688 -281.936)"/>
        <path id="Path_2110" data-name="Path 2110" class="cls-9" d="M319.536,410.548a4.852,4.852,0,0,1,4.841-4.622h18.292v4.622Z" transform="translate(-319.536 -281.936)"/>
        <rect id="Rectangle_388" data-name="Rectangle 388" class="cls-14" width="52.159" height="3.228" transform="translate(2.467)"/>
      </g>
      <path id="Path_2111" data-name="Path 2111" class="cls-9" d="M371.1,174.677s-21.023-16.139-42.741,0l18.97,12.553Z" transform="translate(-37.405 -14.414)"/>
      <g id="Group_1970" data-name="Group 1970" transform="translate(285.712 155.331)">
        <path id="Path_2112" data-name="Path 2112" class="cls-6" d="M322.451,196.058v59.369h52.064V196.058a26.019,26.019,0,0,0-12.668-22.343,24.875,24.875,0,0,0-3.6-1.789,26.174,26.174,0,0,0-17.489-.734,24.182,24.182,0,0,0-2.467.91c-.628.266-1.25.565-1.846.879A26.011,26.011,0,0,0,322.451,196.058Z" transform="translate(-322.451 -170.03)"/>
      </g>
      <g id="Group_1971" data-name="Group 1971" transform="translate(301.548 155.331)">
        <path id="Path_2113" data-name="Path 2113" class="cls-9" d="M340.3,172.1a9.985,9.985,0,0,0,19.956-.177,26.174,26.174,0,0,0-17.489-.734A24.187,24.187,0,0,0,340.3,172.1Z" transform="translate(-340.3 -170.03)"/>
      </g>
      <path id="Path_2114" data-name="Path 2114" class="cls-7" d="M357.491,227.213c-.039,12.011-.168,21.146-.168,21.146h21.122V196.528a26,26,0,0,0-12.667-22.34c-4.223,4.669-8.662,12.409-8.455,24.222.032,1.832.063,3.7.088,5.579.024,2.415.048,4.854.056,7.284.024,2.926.032,5.827.032,8.656C357.5,222.439,357.5,224.878,357.491,227.213Z" transform="translate(-40.671 -15.168)"/>
      <path id="Path_2115" data-name="Path 2115" class="cls-7" d="M330.264,204.081c-.024-1.881-.057-3.747-.088-5.579-.181-10.345,1.1-17.566,4.265-22.337a3.834,3.834,0,0,1-1.346-1.157,25.985,25.985,0,0,0-11.542,21.612v51.83h8.624s.128-9.135.167-21.146c.01-2.335.01-4.774.01-7.284,0-2.829-.01-5.73-.033-8.656C330.311,208.935,330.286,206.5,330.264,204.081Z" transform="translate(-36.637 -15.26)"/>
      <path id="Path_2116" data-name="Path 2116" class="cls-9" d="M336.877,169.859s-11.46,4.117-15.044,7c0,0,7.522,6.359,8.395,16.572,0,0-.2-15.814,7.989-21.349Z" transform="translate(-36.669 -14.679)"/>
      <g id="hand-2" data-name="hand" transform="translate(326.205 163.693)">
        <path id="Path_2117" data-name="Path 2117" class="cls-7" d="M381.368,230.948c14.708-3.713,17.641-8.108,18.205-9.475a3,3,0,0,0-.213-2.66c-16.23-19.191-28.708-28.471-28.831-28.564a5.978,5.978,0,0,1,7.076-9.637c.552.406,13.756,10.182,31.091,30.727.056.064.109.131.162.2a14.977,14.977,0,0,1,1.959,14.005c-2.912,7.8-11.947,13.467-27.561,17.253a20.445,20.445,0,0,0,.229-3.045A18.644,18.644,0,0,0,381.368,230.948Z" transform="translate(-368.092 -179.455)"/>
        <path id="Path_2118" data-name="Path 2118" class="cls-12" d="M377.522,250.554a5.978,5.978,0,0,1-1.174-11.839c1.964-.395,3.757-.8,5.41-1.221a18.644,18.644,0,0,1,2.118,8.8,20.437,20.437,0,0,1-.229,3.045q-2.37.574-4.942,1.091A5.863,5.863,0,0,1,377.522,250.554Z" transform="translate(-368.482 -186.002)"/>
      </g>
      <g id="Group_1972" data-name="Group 1972" transform="translate(303.947 134.612)">
        <path id="Path_2119" data-name="Path 2119" class="cls-15" d="M350.575,176.578a7.571,7.571,0,0,0,7.572-7.571v-14.76a7.572,7.572,0,0,0-15.144,0v14.76A7.57,7.57,0,0,0,350.575,176.578Z" transform="translate(-343.004 -146.677)"/>
      </g>
      <path id="Path_2120" data-name="Path 2120" class="cls-10" d="M333.543,110.664v12.152c-1.928-.236-3.451-2.863-3.451-6.076S331.615,110.9,333.543,110.664Z" transform="translate(-37.6 -8.003)"/>
      <g id="Group_1973" data-name="Group 1973" transform="translate(306.195 94.31)">
        <path id="Path_2121" data-name="Path 2121" class="cls-10" d="M345.538,101.251v35a12.354,12.354,0,0,0,24.708,0V104.376a7.138,7.138,0,0,0-2.567-3.125Z" transform="translate(-345.538 -101.251)"/>
      </g>
      <g id="Group_1974" data-name="Group 1974" transform="translate(295.133 97.849)">
        <path id="Path_2122" data-name="Path 2122" class="cls-12" d="M364.95,105.24v39.348a15.94,15.94,0,1,1-31.881,0V105.24Z" transform="translate(-333.069 -105.24)"/>
      </g>
      <path id="Path_2123" data-name="Path 2123" class="cls-12" d="M366.22,131.318a3.96,3.96,0,1,0,3.96-3.96A3.96,3.96,0,0,0,366.22,131.318Z" transform="translate(-41.676 -9.886)"/>
      <path id="Path_2124" data-name="Path 2124" class="cls-10" d="M369.071,120.23v12.153c-1.929-.236-3.45-2.863-3.45-6.076S367.143,120.466,369.071,120.23Z" transform="translate(-41.608 -9.082)"/>
      <path id="Path_2125" data-name="Path 2125" class="cls-10" d="M366.732,109.423c2.145,0,3.991,1.682,4.854,4.109v6.137c-.863,2.426-2.709,4.108-4.854,4.108-2.97,0-5.376-3.213-5.376-7.177S363.762,109.423,366.732,109.423Z" transform="translate(-41.127 -7.863)"/>
      <g id="Group_1975" data-name="Group 1975" transform="translate(288.948 90.675)">
        <path id="Path_2126" data-name="Path 2126" class="cls-10" d="M326.1,104.328a7.17,7.17,0,0,0,6.185,7.1,6.8,6.8,0,0,0,.988.072h28.182a7.182,7.182,0,0,0,6.6-4.369v-4.813a4.56,4.56,0,0,0-2.4-4.321,7.487,7.487,0,0,0-4.2-.845H333.27A7.174,7.174,0,0,0,326.1,104.328Z" transform="translate(-326.098 -97.154)"/>
      </g>
      <g id="Group_1976" data-name="Group 1976" transform="translate(314.98 117.636)">
        <path id="Path_2127" data-name="Path 2127" class="cls-10" d="M356.277,131.931a.836.836,0,0,0,.835-.837v-2.718a.836.836,0,0,0-1.672,0v2.718A.837.837,0,0,0,356.277,131.931Z" transform="translate(-355.44 -127.542)"/>
      </g>
      <g id="Group_1977" data-name="Group 1977" transform="translate(299.838 117.636)">
        <path id="Path_2128" data-name="Path 2128" class="cls-10" d="M339.207,131.931a.836.836,0,0,0,.837-.837v-2.718a.836.836,0,0,0-1.672,0v2.718A.836.836,0,0,0,339.207,131.931Z" transform="translate(-338.372 -127.542)"/>
      </g>
      <path id="Path_2129" data-name="Path 2129" class="cls-1" d="M354.112,148.3a7.707,7.707,0,0,1-15.03,0Z" transform="translate(-38.614 -12.248)"/>
      <g id="Group_1980" data-name="Group 1980" transform="translate(292.616 93.513)">
        <path id="Path_2130" data-name="Path 2130" class="cls-16" d="M331.03,101.946h6.9a.8.8,0,1,0,0-1.594h-6.9a.8.8,0,1,0,0,1.594Z" transform="translate(-330.232 -100.352)"/>
        <g id="Group_1978" data-name="Group 1978" transform="translate(13.549)">
          <path id="Path_2131" data-name="Path 2131" class="cls-16" d="M346.3,101.946h17.582a.8.8,0,1,0,0-1.594H346.3a.8.8,0,1,0,0,1.594Z" transform="translate(-345.504 -100.352)"/>
        </g>
        <g id="Group_1979" data-name="Group 1979" transform="translate(4.516 3.539)">
          <path id="Path_2132" data-name="Path 2132" class="cls-16" d="M336.12,105.934h17.05a.8.8,0,1,0,0-1.593H336.12a.8.8,0,1,0,0,1.593Z" transform="translate(-335.322 -104.341)"/>
        </g>
      </g>
      <g id="Group_1982" data-name="Group 1982" transform="translate(316.937 152.646)">
        <g id="Group_1981" data-name="Group 1981" transform="translate(10.599)">
          <path id="Path_2133" data-name="Path 2133" class="cls-10" d="M380.126,221.17a10.127,10.127,0,0,1-5.619-1.551c-4.86-3.143-4.915-9.753-4.915-10.033V169.221a2.218,2.218,0,1,1,4.436,0v40.365c0,.036.07,4.5,2.9,6.318,2.149,1.378,5.693,1.022,10.249-1.026a2.218,2.218,0,1,1,1.82,4.046A22.117,22.117,0,0,1,380.126,221.17Z" transform="translate(-369.592 -167.003)"/>
        </g>
        <path id="Path_2134" data-name="Path 2134" class="cls-9" d="M363.336,169.46s2.271.718,5.014,1.926c3.643,1.606,8.1,4.022,9.032,6.2,0,0-12.84,3.071-18.123,12.092a10.328,10.328,0,0,0-1.609,3.707s-.3-5.935,4.186-14.238a74.768,74.768,0,0,1,4.611-6.769Z" transform="translate(-357.645 -167.28)"/>
      </g>
      <g id="flash" transform="translate(234.488 106.451)">
        <g id="Group_1984" data-name="Group 1984" transform="translate(8.833 4.536)">
          <g id="Group_1983" data-name="Group 1983">
            <path id="Path_2135" data-name="Path 2135" class="cls-1" d="M279.41,127.081a.814.814,0,0,0,.657-1.292l-3.927-5.406a.814.814,0,0,0-1.317.956l3.926,5.406A.816.816,0,0,0,279.41,127.081Z" transform="translate(-274.67 -120.048)"/>
          </g>
        </g>
        <g id="Group_1986" data-name="Group 1986" transform="translate(0 16.56)">
          <g id="Group_1985" data-name="Group 1985">
            <path id="Path_2136" data-name="Path 2136" class="cls-1" d="M271.882,137.293a.814.814,0,0,0,.252-1.587l-6.354-2.066a.813.813,0,1,0-.5,1.547l6.354,2.065A.8.8,0,0,0,271.882,137.293Z" transform="translate(-264.714 -133.6)"/>
          </g>
        </g>
        <g id="Group_1988" data-name="Group 1988" transform="translate(39.484 29.655)">
          <g id="Group_1987" data-name="Group 1987">
            <path id="Path_2137" data-name="Path 2137" class="cls-1" d="M316.386,152.052a.814.814,0,0,0,.251-1.587l-6.354-2.065a.813.813,0,0,0-.5,1.547l6.354,2.064A.823.823,0,0,0,316.386,152.052Z" transform="translate(-309.218 -148.36)"/>
          </g>
        </g>
        <g id="Group_1990" data-name="Group 1990" transform="translate(39.562 16.801)">
          <g id="Group_1989" data-name="Group 1989">
            <path id="Path_2138" data-name="Path 2138" class="cls-1" d="M310.119,137.564a.824.824,0,0,0,.25-.04l6.355-2.065a.813.813,0,1,0-.5-1.546l-6.355,2.065a.814.814,0,0,0,.252,1.587Z" transform="translate(-309.305 -133.872)"/>
          </g>
        </g>
        <g id="Group_1992" data-name="Group 1992" transform="translate(33.283 4.685)">
          <g id="Group_1991" data-name="Group 1991">
            <path id="Path_2139" data-name="Path 2139" class="cls-1" d="M303.041,127.248a.813.813,0,0,0,.659-.335l3.926-5.406a.813.813,0,1,0-1.315-.956l-3.927,5.406a.813.813,0,0,0,.657,1.292Z" transform="translate(-302.228 -120.216)"/>
          </g>
        </g>
        <g id="Group_1994" data-name="Group 1994" transform="translate(23.045)">
          <g id="Group_1993" data-name="Group 1993">
            <path id="Path_2140" data-name="Path 2140" class="cls-1" d="M291.5,123.244a.813.813,0,0,0,.814-.813v-6.682a.814.814,0,1,0-1.627,0v6.682A.813.813,0,0,0,291.5,123.244Z" transform="translate(-290.689 -114.935)"/>
          </g>
        </g>
      </g>
    </g>
  </g>
</svg>
